# xmcd CD database file
#
# Track frame offsets:
#	187
#	22785
#	41995
#	65772
#	90895
#	102382
#	124550
#	143042
#	160562
#
# Disc length: 2414 seconds
#
# Revision: 3
# Processed by: cddbd v1.5PL3 Copyright (c) Steve Scherf et al.
# Submitted via: CDex 1.51
#
DISCID=69096c09
DTITLE=EUROPE - Europe
DYEAR=1983
DGENRE=Hard Rock
TTITLE0=In The Future To Come
TTITLE1=Farewell
TTITLE2=Seven Doors Hotel
TTITLE3=The King Will Return
TTITLE4=Boyazont
TTITLE5=Children Of This Time
TTITLE6=Words Of Wisdom
TTITLE7=Paradize Bay
TTITLE8=Memories
EXTD=YEAR: 1983
EXTT0=
EXTT1=
EXTT2=
EXTT3=
EXTT4=
EXTT5=
EXTT6=
EXTT7=
EXTT8=
PLAYORDER=
